<?xml version="1.0" encoding="UTF-8"?>
<!DOCTYPE svg PUBLIC "-//W3C//DTD SVG 1.1//EN" "http://www.w3.org/Graphics/SVG/1.1/DTD/svg11.dtd">
<!-- Creator: CorelDRAW -->
<svg xmlns="http://www.w3.org/2000/svg" xml:space="preserve" width="4.41922in" height="4.41922in" style="shape-rendering:geometricPrecision; text-rendering:geometricPrecision; image-rendering:optimizeQuality; fill-rule:evenodd; clip-rule:evenodd"
viewBox="0 0 4.41917 4.41917"
 xmlns:xlink="http://www.w3.org/1999/xlink">
 <defs>
  <style type="text/css">
   <![CDATA[
    .fil0 {fill:#00A859}
    .fil2 {fill:#00AFEF}
    .fil1 {fill:#F58634}
    .fil3 {fill:#FF0009}
   ]]>
  </style>
 </defs>
 <g id="Layer_x0020_1">
  <metadata id="CorelCorpID_0Corel-Layer"/>
  <path class="fil0" d="M0.355827 2.70709c0.131034,0.049838 1.2309,0.0411137 1.41798,0.0235037 0.232186,-0.0218423 0.339886,-0.14205 0.318414,-0.398802 -0.26945,0.00420074 -0.539698,0.00362594 -0.809947,0.00261808l0 -0.656799 -0.319299 0 0 0.000248029c-0.237088,-0.00490939 -0.503081,-0.010492 -0.629568,0.0372476 -0.111318,0.0419759 -0.21434,0.137703 -0.264532,0.228545 -0.161872,0.29306 -0.0272202,0.643965 0.286953,0.76344zm0.607147 -0.373815c-0.116995,-0.000287398 -0.233922,-0.000338579 -0.350724,0.000204722 -0.108117,0.00049212 -0.255139,0.0228186 -0.278989,-0.0971249 -0.0270587,-0.135935 0.0940383,-0.158553 0.208053,-0.15816 0.140557,0.000468499 0.281107,0.000598418 0.42166,0.00062204l0 0.254458z"/>
  <path class="fil1" d="M4.06333 1.71207c-0.131034,-0.049838 -1.23089,-0.0411137 -1.41798,-0.0235037 -0.23219,0.0218423 -0.339886,0.14205 -0.318418,0.398802 0.26945,-0.00420074 0.539702,-0.00362594 0.809951,-0.00261808l0 0.656799 0.319296 0 0 -0.000248029c0.237092,0.00490939 0.503085,0.010492 0.629571,-0.0372476 0.111318,-0.0419759 0.214336,-0.137703 0.264532,-0.228545 0.161872,-0.29306 0.0272202,-0.643965 -0.286957,-0.76344zm-0.607147 0.373811c0.116995,0.000291335 0.233926,0.000342516 0.350728,-0.000200785 0.108117,-0.00049212 0.255135,-0.0228186 0.278989,0.0971249 0.0270587,0.135935 -0.0940383,0.158553 -0.208053,0.15816 -0.140557,-0.000468499 -0.281107,-0.000598418 -0.421664,-0.00062204l0 -0.254462z"/>
  <path class="fil2" d="M2.70709 4.06334c0.049838,-0.131034 0.0411176,-1.2309 0.0235076,-1.41798 -0.0218423,-0.23219 -0.142053,-0.33989 -0.398806,-0.318418 0.00420074,0.26945 0.00362988,0.539698 0.00261808,0.809951l-0.656799 0 0 0.319296 0.000251966 0c-0.00491333,0.237092 -0.010492,0.503085 0.0372437,0.629571 0.0419798,0.111314 0.137707,0.214336 0.228545,0.264528 0.293064,0.161876 0.643965,0.0272241 0.76344,-0.286953zm-0.373811 -0.607147c-0.000291335,0.116995 -0.000338579,0.233922 0.000200785,0.350724 0.00049212,0.108121 0.0228186,0.255139 -0.0971249,0.278993 -0.135935,0.0270587 -0.158553,-0.0940422 -0.158156,-0.208057 0.000468499,-0.140553 0.000598418,-0.281103 0.00062204,-0.42166l0.254458 0z"/>
  <path class="fil3" d="M1.71207 0.355827c-0.049838,0.131034 -0.0411176,1.2309 -0.0235076,1.41798 0.0218423,0.23219 0.142053,0.339886 0.398802,0.318418 -0.0041968,-0.26945 -0.00362594,-0.539698 -0.00261414,-0.809951l0.656799 0 0 -0.319296 -0.000251966 0c0.00491333,-0.237092 0.010492,-0.503085 -0.0372437,-0.629571 -0.0419798,-0.111314 -0.137707,-0.214336 -0.228549,-0.264528 -0.29306,-0.161876 -0.643961,-0.0272241 -0.763436,0.286953zm0.373811 0.607147c0.000291335,-0.116995 0.000338579,-0.233926 -0.000200785,-0.350724 -0.000496057,-0.108121 -0.0228186,-0.255139 0.0971209,-0.278993 0.135939,-0.0270587 0.158557,0.0940383 0.15816,0.208053 -0.000468499,0.140557 -0.000598418,0.281107 -0.00062204,0.421664l-0.254458 0z"/>
 </g>
</svg>
