<?xml version="1.0" encoding="UTF-8"?>
<!DOCTYPE svg PUBLIC "-//W3C//DTD SVG 1.1//EN" "http://www.w3.org/Graphics/SVG/1.1/DTD/svg11.dtd">
<!-- Creator: CorelDRAW -->
<svg xmlns="http://www.w3.org/2000/svg" xml:space="preserve" width="6.88181in" height="2.92763in" style="shape-rendering:geometricPrecision; text-rendering:geometricPrecision; image-rendering:optimizeQuality; fill-rule:evenodd; clip-rule:evenodd"
viewBox="0 0 6.87586 2.9251"
 xmlns:xlink="http://www.w3.org/1999/xlink">
 <defs>
  <style type="text/css">
   <![CDATA[
    .fil0 {fill:#00A859}
    .fil2 {fill:#00AFEF}
    .fil5 {fill:#6E6E6E}
    .fil1 {fill:#F58634}
    .fil3 {fill:#FF0009}
    .fil4 {fill:#6E6E6E;fill-rule:nonzero}
   ]]>
  </style>
 </defs>
 <g id="Layer_x0020_1">
  <metadata id="CorelCorpID_0Corel-Layer"/>
  <g id="_709616280">
   <path id="_709616640" class="fil0" d="M0.235529 1.79185c0.0867321,0.0329912 0.814741,0.0272166 0.938571,0.0155614 0.15369,-0.0144599 0.224975,-0.094029 0.210767,-0.263973 -0.178354,0.00277713 -0.357235,0.0023995 -0.536115,0.00173079l0 -0.434742 -0.211345 0 0 0.000165212c-0.156935,-0.00324916 -0.333,-0.00694675 -0.416722,0.0246519 -0.0736804,0.027787 -0.141869,0.0911496 -0.175093,0.151279 -0.107148,0.193978 -0.0180199,0.426246 0.189938,0.505327zm0.401877 -0.247428c-0.0774409,-0.000192747 -0.154839,-0.000224216 -0.23215,0.000133743 -0.0715641,0.000326489 -0.168878,0.0151011 -0.184667,-0.0642869 -0.0179097,-0.0899813 0.0622454,-0.104949 0.137712,-0.104689 0.0930377,0.000310755 0.186068,0.000397294 0.279105,0.000413029l0 0.168429z"/>
   <path id="_709616520" class="fil1" d="M2.68956 1.13324c-0.0867321,-0.0329872 -0.814741,-0.0272127 -0.938574,-0.0155574 -0.153686,0.014456 -0.224975,0.094025 -0.210763,0.263973 0.178354,-0.00278106 0.357235,-0.0023995 0.536115,-0.00173472l0 0.434746 0.211345 0 0 -0.000169145c0.156935,0.00325309 0.332996,0.00694675 0.416719,-0.0246519 0.0736843,-0.027787 0.141873,-0.0911496 0.175097,-0.151275 0.107148,-0.193982 0.0180199,-0.42625 -0.189938,-0.505331zm-0.401877 0.247432c0.0774409,0.000192747 0.154839,0.000224216 0.23215,-0.000133743 0.0715641,-0.000326489 0.168878,-0.0151051 0.184667,0.0642869 0.0179097,0.0899773 -0.0622454,0.104949 -0.137712,0.104685 -0.0930377,-0.000310755 -0.186068,-0.000393361 -0.279105,-0.000409095l0 -0.168429z"/>
   <path id="_709616160" class="fil2" d="M1.79185 2.68957c0.0329872,-0.0867321 0.0272127,-0.814741 0.0155574,-0.938574 -0.014456,-0.153686 -0.094025,-0.224975 -0.263973,-0.210763 0.00278106,0.178354 0.00240343,0.357235 0.00173472,0.536115l-0.434742 0 0 0.211345 0.000165212 0c-0.00325309,0.156935 -0.00694675,0.332996 0.0246519,0.416719 0.027787,0.0736843 0.0911496,0.141873 0.151279,0.175097 0.193978,0.107148 0.426246,0.0180199 0.505327,-0.189938zm-0.247428 -0.401877c-0.000192747,0.0774409 -0.000228149,0.154839 0.000133743,0.23215 0.000322556,0.0715641 0.0151011,0.168878 -0.0642909,0.184667 -0.0899773,0.0179097 -0.104949,-0.0622454 -0.104685,-0.137712 0.000310755,-0.0930377 0.000397294,-0.186068 0.000413029,-0.279105l0.168429 0z"/>
   <path id="_709616376" class="fil3" d="M1.13323 0.235525c-0.0329872,0.0867321 -0.0272127,0.814741 -0.0155574,0.938574 0.014456,0.153686 0.094025,0.224975 0.263973,0.210763 -0.00278106,-0.17835 -0.0023995,-0.357235 -0.00173079,-0.536115l0.434742 0 0 -0.211345 -0.000165212 0c0.00324916,-0.156931 0.00694282,-0.332996 -0.0246559,-0.416719 -0.027787,-0.0736804 -0.0911496,-0.141873 -0.151275,-0.175097 -0.193982,-0.107144 -0.42625,-0.0180159 -0.505331,0.189938zm0.247432 0.401877c0.000192747,-0.0774409 0.000224216,-0.154839 -0.000133743,-0.23215 -0.000326489,-0.0715641 -0.0151051,-0.168878 0.0642869,-0.184667 0.0899773,-0.0179097 0.104949,0.0622454 0.104685,0.137716 -0.000306821,0.0930338 -0.000393361,0.186064 -0.000409095,0.279101l-0.168429 0z"/>
  </g>
  <g id="_709616040">
   <path id="_709615896" class="fil4" d="M3.32175 1.54874c0,0.0367792 0.0132838,0.067426 0.040052,0.0921526 0.0271734,0.0251318 0.0582292,0.037802 0.0929669,0.037802 0.0335104,0 0.0629338,-0.0126701 0.0884786,-0.037802 0.0249273,-0.0243176 0.0375935,-0.0549643 0.0384117,-0.0921526l0 -0.216997c-0.00081819,-0.0371923 -0.0134844,-0.067839 -0.0384117,-0.0921526 -0.0255448,-0.0251318 -0.0574189,-0.037802 -0.0958345,-0.037802 -0.0335104,0 -0.0627253,0.0126701 -0.0878611,0.037802 -0.0247227,0.0247227 -0.0373929,0.0543507 -0.037802,0.0886792l0 0.00347338 0 0.216997zm-0.0956221 0.460968l0 -0.679602c0,-0.0623201 0.0220675,-0.115447 0.0664072,-0.159378 0.0441311,-0.0439305 0.097463,-0.0657935 0.159783,-0.0657935 0.0623201,0 0.115239,0.021863 0.159169,0.0657935 0.0439345,0.0439305 0.0657975,0.0970578 0.0657975,0.159378l0 0.220266c0,0.0623201 -0.021863,0.115447 -0.0657975,0.159378 -0.0439305,0.0439305 -0.0970539,0.0657935 -0.159169,0.0657935 -0.0490403,0 -0.0925617,-0.0134844 -0.130568,-0.0406617l0 0.232936 -0.0956221 0.041889zm0.529007 -0.234164l0 -0.445438c0,-0.0623201 0.021863,-0.115447 0.0657935,-0.159378 0.0439305,-0.0439305 0.0970539,-0.0657935 0.159173,-0.0657935 0.0633429,0 0.116671,0.021863 0.159783,0.0657935 0.0443396,0.0455669 0.0664072,0.0984857 0.0664072,0.159173l0 0.00245064 -0.0956221 0.041889 0 -0.0424987c-0.00081819,-0.0371923 -0.0134883,-0.067839 -0.0384156,-0.0921526 -0.0255448,-0.0251318 -0.0555779,-0.037802 -0.0903156,-0.037802 -0.0363701,0 -0.0672214,0.0126701 -0.0927663,0.037802 -0.0255409,0.0251279 -0.0384117,0.0551688 -0.0384117,0.0903117 0,0.00081819 0,0.00143183 0,0.00184093l0 0.401912 -0.095626 0.041889zm0.61299 -0.17654c0,0.0132838 0.00510976,0.0269727 0.0155299,0.0410708 0.0192039,0.0257455 0.04965,0.0386202 0.0917435,0.0386202 0.0255409,0 0.0480175,-0.00592795 0.0676305,-0.0179845l0.035965 0.0903156c-0.0312643,0.0163481 -0.0657935,0.0245182 -0.103595,0.0245182 -0.0598695,0 -0.112997,-0.021863 -0.159173,-0.0657935 -0.0312604,-0.031874 -0.0467903,-0.0686572 -0.0467903,-0.110133 0,-0.00163638 0,-0.00326883 0,-0.00470066 0,-0.0743727 0.0382071,-0.127091 0.11422,-0.158151l0.243766 -0.100531c0,-0.0380026 -0.0126701,-0.0698766 -0.037802,-0.0958266 -0.0251358,-0.0257494 -0.0568052,-0.0386202 -0.0952169,-0.0386202 -0.0335104,0 -0.0629338,0.0126701 -0.0884786,0.037802 -0.0249273,0.0243136 -0.0375935,0.0549604 -0.0384117,0.0921526l0 0.00837858 -0.095626 0.0424987 0 -0.0525137c0,-0.055987 0.0239045,-0.10952 0.0717175,-0.160605 0.0406617,-0.0431123 0.0921526,-0.0645662 0.154473,-0.0645662 0.0623201,0 0.115243,0.021863 0.159173,0.0657935 0.0439345,0.0439305 0.0657935,0.0970578 0.0657935,0.159378l0 0.403549 -0.0956221 0.041889 0 -0.335918 -0.197794 0.0805091c-0.0410669,0.019613 -0.061502,0.0459721 -0.061502,0.0788688zm0.445033 0.17654l0 -0.445438c0,-0.0623201 0.0218591,-0.115447 0.0657896,-0.159378 0.0439345,-0.0439305 0.0968533,-0.0657935 0.159173,-0.0657935 0.0623201,0 0.115652,0.021863 0.159787,0.0657935 0.0443396,0.0439305 0.0664072,0.0970578 0.0664072,0.159378l0 0.403549 -0.095626 0.041889 0 -0.443801c-0.00081819,-0.0371923 -0.0134844,-0.067839 -0.0384156,-0.0921526 -0.0255409,-0.0251318 -0.0555779,-0.037802 -0.0903156,-0.037802 -0.035961,0 -0.0668123,0.0128708 -0.0927623,0.0384117 -0.0255409,0.0247267 -0.0384156,0.0545591 -0.0384156,0.089702 0,0.00081819 0,0.00143183 0,0.00184093l0 0.401912 -0.0956221 0.041889zm0.884539 -0.231096l0.095626 -0.041889 0 0.0480175c0,0.0621156 -0.021863,0.115243 -0.0657935,0.159173 -0.0439305,0.0439305 -0.0970539,0.0657935 -0.159583,0.0657935 -0.0623201,0 -0.115652,-0.021863 -0.159583,-0.0657935 -0.0441311,-0.0439305 -0.0661987,-0.0970578 -0.0661987,-0.159378l0 -0.403549 0.0956221 -0.041889 0 0.443805c0.000822124,0.0371883 0.0134883,0.0678351 0.0382111,0.0921526 0.0255409,0.0251318 0.0574189,0.037802 0.0956299,0.037802 0.033711,0 0.0629299,-0.0134883 0.0882702,-0.0406656 0.0251279,-0.0271734 0.037798,-0.0584377 0.037798,-0.0935805zm-0.364319 -0.498899c-0.0153686,-0.0152663 -0.0230863,-0.0341201 -0.0230863,-0.055987 0,-0.0220636 0.00771774,-0.0407168 0.0230863,-0.0559831 0.0154709,-0.0153686 0.0339195,-0.0230903 0.0553734,-0.0230903 0.0214539,0 0.0398514,0.00777281 0.0547598,0.0230903 0.0149084,0.0153135 0.0224766,0.0339195 0.0224766,0.0559831 0,0.0218669 -0.00756039,0.0406617 -0.0224766,0.055987 -0.0149162,0.0153253 -0.0333059,0.0230903 -0.0547598,0.0230903 -0.0214539,0 -0.0399025,-0.00772167 -0.0553734,-0.0230903zm0.905591 0.742461l0 -0.0525137c-0.0375974,0.0267643 -0.0807098,0.0400481 -0.129345,0.0400481 -0.0623201,0 -0.115444,-0.021863 -0.159783,-0.0657935 -0.0443396,-0.0439305 -0.0664072,-0.0970578 -0.0664072,-0.159378l0 -0.403549 0.095626 -0.041889 0 0.443805c0.00081819,0.0371883 0.0134844,0.0678351 0.0384117,0.0921526 0.0255448,0.0251318 0.0574189,0.037802 0.0958345,0.037802 0.0335104,0 0.0627253,-0.0126701 0.0878611,-0.037802 0.0249273,-0.0247267 0.0373929,-0.05415 0.037802,-0.0884786l0 -0.00367399 0 -0.401916 0.0956221 -0.041889 0 0.684707c0,0.0621195 -0.0220675,0.115243 -0.0664072,0.159173 -0.0441311,0.0439305 -0.097463,0.0657975 -0.159783,0.0657975 -0.0623201,0 -0.115243,-0.0218669 -0.159173,-0.0657975 -0.0279916,-0.027787 -0.0467903,-0.0592559 -0.0568013,-0.0943987l0.0950124 -0.0202305c0.00633311,0.0169617 0.0169578,0.0322831 0.0316695,0.045976 0.0275864,0.0251318 0.0586422,0.0375935 0.0929708,0.0375935 0.0335104,0 0.0629338,-0.0124617 0.0884747,-0.0375935 0.0249273,-0.0243176 0.0375974,-0.0549643 0.0384156,-0.0921526zm0.281977 -0.189006c0,0.0132838 0.00510582,0.0269727 0.0155259,0.0410708 0.0192078,0.0257455 0.04965,0.0386202 0.0917435,0.0386202 0.0255409,0 0.0480175,-0.00592795 0.0676344,-0.0179845l0.035961 0.0903156c-0.0312604,0.0163481 -0.0657935,0.0245182 -0.103595,0.0245182 -0.0598656,0 -0.112993,-0.021863 -0.159173,-0.0657935 -0.0312604,-0.031874 -0.0467903,-0.0686572 -0.0467903,-0.110133 0,-0.00163638 0,-0.00326883 0,-0.00470066 0,-0.0743727 0.0382071,-0.127091 0.11422,-0.158151l0.243766 -0.100531c0,-0.0380026 -0.0126701,-0.0698766 -0.037802,-0.0958266 -0.0251318,-0.0257494 -0.0568013,-0.0386202 -0.0952169,-0.0386202 -0.0335104,0 -0.0629338,0.0126701 -0.0884747,0.037802 -0.0249312,0.0243136 -0.0375974,0.0549604 -0.0384156,0.0921526l0 0.00837858 -0.0956221 0.0424987 0 -0.0525137c0,-0.055987 0.0239045,-0.10952 0.0717175,-0.160605 0.0406617,-0.0431123 0.0921526,-0.0645662 0.154473,-0.0645662 0.0623201,0 0.115239,0.021863 0.159169,0.0657935 0.0439345,0.0439305 0.0657975,0.0970578 0.0657975,0.159378l0 0.403549 -0.095626 0.041889 0 -0.335918 -0.19779 0.0805091c-0.0410708,0.019613 -0.061502,0.0459721 -0.061502,0.0788688z"/>
   <polygon id="_709616136" class="fil5" points="6.4929,1.00317 6.4929,0.916224 6.83266,0.916224 6.83266,1.00317 "/>
  </g>
 </g>
</svg>
